<?xml version="1.0" encoding="utf-8"?>
<!-- Generator: Adobe Illustrator 19.1.1, SVG Export Plug-In . SVG Version: 6.00 Build 0)  -->
<svg version="1.1" id="Layer_1" xmlns="http://www.w3.org/2000/svg" xmlns:xlink="http://www.w3.org/1999/xlink" x="0px" y="0px"
	 viewBox="0 0 39.7 39.7" style="enable-background:new 0 0 39.7 39.7;" xml:space="preserve">
<style type="text/css">
	.st0{fill:#00A9E0;}
</style>
<g>
	<g>
		<path class="st0" d="M19.9,39.5c-3.2,0-6.5,0.3-9.7-0.1C4.4,38.9,0.1,34,0,28.1C0,22.6,0,17.1,0,11.6C0.1,5.2,5.2,0.2,11.5,0.1
			C17.1,0,22.6,0,28.2,0.1c6.4,0.1,11.4,5.2,11.5,11.6c0.1,5.5,0.1,11,0,16.5c-0.1,6.4-5.2,11.5-11.6,11.6c-2.7,0-5.5,0-8.2,0
			C19.9,39.6,19.9,39.6,19.9,39.5z M36.1,20c0-2.7,0-5.4,0-8.1c0-4.7-3.5-8.3-8.3-8.3c-5.3,0-10.7,0-16,0c-4.7,0-8.2,3.5-8.3,8.3
			c0,5.3,0,10.6,0,15.9c0,4.8,3.5,8.3,8.3,8.4c5.3,0,10.6,0,15.9,0c4.8,0,8.3-3.5,8.3-8.3C36.1,25.2,36.1,22.6,36.1,20z"/>
		<path class="st0" d="M19.8,30.7c-6,0-10.8-4.9-10.8-10.9c0.1-6,4.9-10.7,10.8-10.7c6,0,10.8,4.9,10.8,10.9
			C30.6,25.9,25.8,30.7,19.8,30.7z M27.1,19.8c0-4-3.4-7.3-7.3-7.2c-4,0-7.3,3.4-7.2,7.3c0,4,3.4,7.3,7.3,7.2
			C23.9,27.1,27.2,23.8,27.1,19.8z"/>
		<path class="st0" d="M32.1,9.1c-0.1,1.1-0.6,1.7-1.6,1.7c-1,0-1.6-0.6-1.5-1.6c0-1,0.6-1.5,1.5-1.5C31.6,7.6,32,8.3,32.1,9.1z"/>
	</g>
</g>
</svg>
