<?xml version="1.0" encoding="utf-8"?>
<!-- Generator: Adobe Illustrator 19.1.1, SVG Export Plug-In . SVG Version: 6.00 Build 0)  -->
<svg version="1.1" id="Layer_1" xmlns="http://www.w3.org/2000/svg" xmlns:xlink="http://www.w3.org/1999/xlink" x="0px" y="0px"
	 viewBox="0 0 43.9 35.8" style="enable-background:new 0 0 43.9 35.8;" xml:space="preserve">
<style type="text/css">
	.st0{fill:#00A9E0;}
</style>
<path class="st0" d="M0,31.8C4.9,32.2,9.3,31,13.2,28c-2.6-0.1-4.7-1.1-6.4-2.9c-0.9-1-1.6-2.1-2-3.4c1.4,0.2,2.7,0.2,4-0.2
	c-5.4-1.3-7.4-6.1-7.1-9c1.2,0.6,2.5,1,4,1.1C3.4,12,2.1,9.9,1.8,7.2C1.5,5.2,1.9,3.4,2.9,1.7c4.9,5.8,11.1,8.9,18.6,9.4
	c-0.1-0.6-0.1-1.1-0.2-1.7c-0.1-2,0.4-3.9,1.6-5.5c1.7-2.4,4-3.7,7-3.9c2.6-0.1,4.8,0.7,6.7,2.4c0.3,0.3,0.6,0.4,1,0.3
	c1.6-0.4,3.2-1,4.7-1.8c0.1-0.1,0.3-0.1,0.5-0.2c-0.7,2.1-2,3.7-3.8,4.9c1.7-0.2,3.3-0.6,4.9-1.3c0,0,0.1,0.1,0.1,0.1
	c-0.7,0.8-1.4,1.7-2.2,2.5c-0.6,0.6-1.4,1.2-2,1.8c-0.2,0.1-0.3,0.3-0.2,0.5c0.1,6.7-2,12.6-6.2,17.8c-2.9,3.5-6.6,6-10.9,7.5
	c-3.1,1-6.3,1.5-9.5,1.3c-3.4-0.1-6.6-0.9-9.6-2.3C2.1,33,1,32.5,0,31.9C0,31.9,0,31.8,0,31.8z"/>
</svg>
